:version 1.10
:name ASF
:units
  mass 1
  length 1
  angle deg
:documentation
  ASF file generated by Kaydara
:root
  axis xyz
  order  tx ty tz rx ry rz
  position 0 0 0
  orientation 0 0 0
:bonedata
  begin
    id 1
    name RightUpLegDummy
    direction -0.718183 -0.695806 0.00816078
    length 4.904
    axis 0 0 0 xyz
  end
  begin
    id 2
    name RightUpLeg
    direction -0.0736652 -0.994202 0.0783343
    length 17.4976
    axis -2.72909 -3.00389 -4.00133 xyz
    dof rx ry rz
  end
  begin
    id 3
    name RightLeg
    direction -0.0389037 -0.994596 -0.0962598
    length 16.5821
    axis 3.95836 -18.5909 -4.46993 xyz
    dof rx ry rz
  end
  begin
    id 4
    name RightFoot
    direction -0.311643 -0.412678 0.855906
    length 3.77069
    axis -1.99483 -18.8351 -3.27644 xyz
    dof rx ry rz
  end
  begin
    id 5
    name RightToes
    direction -0.317852 0.0389852 0.947339
    length 3.85082
    axis -2.00228 -18.1713 -3.25211 xyz
    dof rx ry rz
  end
  begin
    id 6
    name SpineDummy
    direction 8.3039e-015 1 4.44677e-016
    length 4.6813
    axis 0 0 0 xyz
  end
  begin
    id 7
    name Spine
    direction -0.000262373 0.999988 0.00493267
    length 10.1015
    axis -0.00246081 0.00062579 0.0150362 xyz
    dof rx ry rz
  end
  begin
    id 8
    name Spine1
    direction 0 0 0
    length 0
    axis -0.00349562 0.000650293 0.0196666 xyz
    dof rx ry rz
  end
  begin
    id 9
    name HEadDummy
    direction -0.000343232 0.999999 0.00123745
    length 3.43865
    axis -0.00349562 0.000650293 0.0196666 xyz
  end
  begin
    id 10
    name HEad
    direction -0.0461221 0.980933 0.188796
    length 5.12695
    axis -0.00351404 -7.04812 0.0199272 xyz
    dof rx ry rz
  end
  begin
    id 11
    name LeftShoulder1Dummy
    direction 0.998904 -0.0399089 -0.0244534
    length 3.5433
    axis -0.00349562 0.000650293 0.0196666 xyz
  end
  begin
    id 12
    name LeftShoulder1
    direction 0.99951 1.64443e-005 0.0312999
    length 4.05031
    axis -0.00349562 0.000650293 0.0196666 xyz
    dof rx ry rz
  end
  begin
    id 13
    name LeftArm
    direction 0.984791 0.0515299 0.165927
    length 12.9126
    axis -64.823 -10.7743 5.20463 xyz
    dof rx ry rz
  end
  begin
    id 14
    name LeftForeArm
    direction 0.984968 0.0534808 0.16425
    length 10.8596
    axis -30.0462 -7.70601 1.87451 xyz
    dof rx ry rz
  end
  begin
    id 15
    name LeftHand
    direction 0.975871 0.0289682 0.216418
    length 6.62295
    axis -20.1348 -6.98077 1.86072 xyz
    dof rx ry rz
  end
  begin
    id 16
    name RightShoulderDummy
    direction -0.998877 -0.0405946 -0.0244307
    length 3.5433
    axis -0.00349562 0.000650293 0.0196666 xyz
  end
  begin
    id 17
    name RightShoulder
    direction -0.998933 -0.0249743 -0.0388558
    length 4.05031
    axis -0.0205316 -4.02113 1.41395 xyz
    dof rx ry rz
  end
  begin
    id 18
    name RightArm
    direction -0.997559 0.068664 0.0127103
    length 12.9638
    axis -67.3882 1.84188 -6.15987 xyz
    dof rx ry rz
  end
  begin
    id 19
    name RightForeArm
    direction -0.991508 0.0912848 0.0926241
    length 10.8312
    axis -22.1975 3.41087 -4.28711 xyz
    dof rx ry rz
  end
  begin
    id 20
    name RightHand
    direction -0.989262 0.0600788 0.133232
    length 6.57864
    axis -12.2911 2.17515 -4.39675 xyz
    dof rx ry rz
  end
  begin
    id 21
    name LeftUpLegDummy
    direction 0.718183 -0.695806 0.00816078
    length 4.904
    axis 0 0 0 xyz
  end
  begin
    id 22
    name LeftUpLeg
    direction 0.0831398 -0.99469 0.0606531
    length 17.4976
    axis -1.71016 2.29552 4.63832 xyz
    dof rx ry rz
  end
  begin
    id 23
    name LeftLeg
    direction 0.0498442 -0.991778 -0.117862
    length 16.5821
    axis 5.13757 15.5727 5.13348 xyz
    dof rx ry rz
  end
  begin
    id 24
    name LeftFoot
    direction 0.269026 -0.433896 0.85986
    length 3.77069
    axis -0.576502 15.6961 4.10267 xyz
    dof rx ry rz
  end
  begin
    id 25
    name LeftToes
    direction 0.277311 0.0251143 0.960452
    length 3.85048
    axis -0.576502 15.6961 4.10267 xyz
    dof rx ry rz
  end
:hierarchy
  begin
    root RightUpLegDummy SpineDummy LeftUpLegDummy
    RightUpLegDummy RightUpLeg
    RightUpLeg RightLeg
    RightLeg RightFoot
    RightFoot RightToes
    SpineDummy Spine
    Spine Spine1
    Spine1 HEadDummy LeftShoulder1Dummy RightShoulderDummy
    HEadDummy HEad
    LeftShoulder1Dummy LeftShoulder1
    LeftShoulder1 LeftArm
    LeftArm LeftForeArm
    LeftForeArm LeftHand
    RightShoulderDummy RightShoulder
    RightShoulder RightArm
    RightArm RightForeArm
    RightForeArm RightHand
    LeftUpLegDummy LeftUpLeg
    LeftUpLeg LeftLeg
    LeftLeg LeftFoot
    LeftFoot LeftToes
  end

:SAMPLES-PER-SECOND 30
:FULLY-SPECIFIED
:DEGREES
77
root  1.20609 38.9144 36.4056 176.872 6.92488 -177.065
RightUpLeg  2.93595 -0.894883 7.75889
RightLeg  18.198 1.77821 -3.00752
RightFoot  -17.7486 -0.00840949 -1.63727
RightToes  -5.82073e-011 -3.18055e-015 -2.98177e-016
Spine  0.219723 3.8299 12.6035
Spine1  11.0899 5.78458 -5.97117
HEad  -4.07158 -1.04752 0.704715
LeftShoulder1  -3.88251e-019 9.70628e-020 -3.87848e-018
LeftArm  -32.3413 69.2981 -74.2351
LeftForeArm  6.03286 -4.55761 -2.79983
LeftHand  -0.245976 1.10771 7.33067
RightShoulder  7.3127 10.336 34.868
RightArm  19.0218 -32.2699 28.9539
RightForeArm  -4.96496 25.9979 -13.7469
RightHand  -0.989357 1.73103 -15.8495
LeftUpLeg  -22.6067 3.75346 -2.37794
LeftLeg  16.6632 3.63637 6.58204
LeftFoot  -0.153253 0.329105 -2.87665
LeftToes  -3.44176e-011 4.05998e-011 -5.21293e-012
78
root  1.21052 38.9384 35.3767 176.327 7.60841 -177.883
RightUpLeg  5.55422 -1.68357 6.38229
RightLeg  17.2425 3.15669 -2.71282
RightFoot  -18.9286 0.0108579 -1.00219
RightToes  -5.82073e-011 -3.18055e-015 -2.98177e-016
Spine  0.919232 4.03662 11.8524
Spine1  11.2622 6.3378 -7.25451
HEad  -4.36325 -0.856446 0.717977
LeftShoulder1  -3.88251e-019 9.70628e-020 -3.87848e-018
LeftArm  -32.095 70.3326 -73.4982
LeftForeArm  6.0158 -4.11073 -2.6433
LeftHand  -0.206227 1.35093 6.51693
RightShoulder  7.29479 10.328 34.7939
RightArm  19.3346 -31.1333 29.2797
RightForeArm  -7.05449 28.7892 -15.1563
RightHand  -1.08905 2.22792 -16.33
LeftUpLeg  -19.3497 -0.336366 -1.65657
LeftLeg  6.6492 7.47732 3.42921
LeftFoot  0.838619 0.926868 -7.53962
LeftToes  -3.44176e-011 4.05998e-011 -5.21293e-012
79
root  1.17103 38.8774 34.3331 175.784 8.19208 -178.496
RightUpLeg  7.66081 -3.06661 5.06328
RightLeg  17.2242 5.07449 -2.86755
RightFoot  -19.9323 0.0619666 -0.0199027
RightToes  -5.82073e-011 -3.18055e-015 -2.98177e-016
Spine  1.94535 3.99723 11.0569
Spine1  11.2104 6.62765 -8.19021
HEad  -4.56077 -0.487125 0.724469
LeftShoulder1  -3.88251e-019 9.70628e-020 -3.87848e-018
LeftArm  -32.037 71.2115 -72.8788
LeftForeArm  5.14609 -4.13416 -2.4827
LeftHand  -0.182801 1.56134 6.09288
RightShoulder  7.264 10.3166 34.6611
RightArm  19.783 -30.3591 29.6684
RightForeArm  -8.63608 31.0226 -16.3583
RightHand  -1.13271 2.34468 -16.7274
LeftUpLeg  -17.9934 -3.41868 -1.37056
LeftLeg  4.18101 12.1822 2.72319
LeftFoot  2.51694 1.01393 -7.42839
LeftToes  -3.44176e-011 4.05998e-011 -5.21293e-012
80
root  1.09575 38.7644 33.2255 175.566 8.27403 -179.069
RightUpLeg  8.69375 -4.6437 3.75546
RightLeg  18.7791 6.83618 -3.64124
RightFoot  -20.6186 0.134991 1.04819
RightToes  -5.82073e-011 -3.18055e-015 -2.98177e-016
Spine  2.53237 3.82771 9.9686
Spine1  11.0901 6.56898 -8.41936
HEad  -4.61034 -0.23569 0.820707
LeftShoulder1  -3.88251e-019 9.70628e-020 -3.87848e-018
LeftArm  -31.634 71.5451 -72.0827
LeftForeArm  4.24194 -4.37337 -2.40499
LeftHand  -0.179344 1.66504 6.14774
RightShoulder  7.28874 10.3371 34.7425
RightArm  20.187 -30.2158 29.5499
RightForeArm  -9.10206 33.071 -17.5694
RightHand  -1.16593 2.48498 -16.9144
LeftUpLeg  -18.1725 -2.61546 -2.68207
LeftLeg  6.84919 12.8778 3.85546
LeftFoot  5.4796 0.277859 -1.6626
LeftToes  -3.44176e-011 4.05998e-011 -5.21293e-012
81
root  0.980737 38.5808 32.0182 175.457 7.75659 -179.812
RightUpLeg  8.47556 -6.0273 2.10848
RightLeg  23.0147 7.94324 -4.71983
RightFoot  -21.4669 0.309334 3.27221
RightToes  -5.82073e-011 -3.18055e-015 -2.98177e-016
Spine  2.6189 3.57928 8.90293
Spine1  11.0449 6.3489 -8.39915
HEad  -4.56392 -0.395579 1.2456
LeftShoulder1  -3.88251e-019 9.70628e-020 -3.87848e-018
LeftArm  -30.3404 70.8456 -70.5965
LeftForeArm  3.73393 -4.60871 -2.41938
LeftHand  -0.193133 1.61543 6.54212
RightShoulder  7.41521 10.4134 35.2195
RightArm  20.3096 -30.9842 28.5691
RightForeArm  -8.73096 35.1874 -18.9402
RightHand  -1.24154 2.87188 -17.1769
LeftUpLeg  -19.1295 -0.66606 -4.9157
LeftLeg  11.5533 10.2506 5.87592
LeftFoot  7.21751 -0.707475 4.13119
LeftToes  -3.44176e-011 4.05998e-011 -5.21293e-012
82
root  0.829734 38.4201 30.8083 175.199 6.91348 179.143
RightUpLeg  7.10721 -7.08161 -0.124049
RightLeg  29.6907 8.25981 -5.71136
RightFoot  -20.848 0.542489 7.3309
RightToes  -5.82073e-011 -3.18055e-015 -2.98177e-016
Spine  3.01401 3.22473 8.07799
Spine1  10.9175 6.20997 -9.01048
HEad  -4.4922 -1.03767 1.94539
LeftShoulder1  -3.88251e-019 9.70628e-020 -3.87848e-018
LeftArm  -28.5645 69.1762 -68.7127
LeftForeArm  3.23168 -5.04925 -2.44986
LeftHand  -0.225845 1.34548 7.13614
RightShoulder  7.54772 10.4907 35.7199
RightArm  20.0688 -32.882 27.1845
RightForeArm  -8.18949 36.9944 -20.1949
RightHand  -1.34922 3.29473 -17.7649
LeftUpLeg  -19.8825 -0.150066 -7.29753
LeftLeg  16.2223 7.85861 8.04347
LeftFoot  5.63873 -0.946337 5.80318
LeftToes  -3.44176e-011 4.05998e-011 -5.21293e-012
83
root  0.655186 38.3503 29.6862 174.835 6.49832 178.098
RightUpLeg  4.16539 -8.55082 -2.51694
RightLeg  38.1581 8.52492 -7.30264
RightFoot  -15.8328 0.290159 10.7189
RightToes  -5.82073e-011 -3.18055e-015 -2.98177e-016
Spine  4.20707 2.92931 7.75993
Spine1  10.3765 6.32934 -10.3946
HEad  -4.36092 -1.85042 2.4131
LeftShoulder1  -3.88251e-019 9.70628e-020 -3.87848e-018
LeftArm  -27.0207 67.0815 -67.2495
LeftForeArm  2.08999 -6.19701 -2.45006
LeftHand  -0.276091 0.81265 7.68501
RightShoulder  7.57225 10.5095 35.8015
RightArm  19.8497 -35.6366 25.9808
RightForeArm  -7.7569 37.9857 -20.9214
RightHand  -1.42959 3.60361 -18.1831
LeftUpLeg  -19.6373 -1.01131 -8.84519
LeftLeg  19.8184 7.93076 9.52521
LeftFoot  2.14229 -0.678378 5.11178
LeftToes  -3.44176e-011 4.05998e-011 -5.21293e-012
84
root  0.485462 38.3536 28.6941 174.624 7.13689 177.175
RightUpLeg  -0.813156 -9.28627 -4.26268
RightLeg  47.1656 7.90285 -10.5245
RightFoot  -6.19795 -0.555298 9.87669
RightToes  -5.82073e-011 -3.18055e-015 -2.98177e-016
Spine  5.76862 2.92951 7.53264
Spine1  9.70507 6.72079 -11.8319
HEad  -4.16225 -2.2152 2.21246
LeftShoulder1  -3.88251e-019 9.70628e-020 -3.87848e-018
LeftArm  -25.656 64.9302 -66.4656
LeftForeArm  0.156222 -8.41532 -2.47839
LeftHand  -0.334398 0.104198 8.01725
RightShoulder  7.53315 10.5016 35.6218
RightArm  20.165 -38.1763 25.1503
RightForeArm  -7.02938 37.8969 -20.8954
RightHand  -1.43715 3.86848 -17.7716
LeftUpLeg  -18.5413 0.0425541 -10.2527
LeftLeg  21.3887 7.82396 10.166
LeftFoot  -0.561267 -0.544421 4.95895
LeftToes  -3.44176e-011 4.05998e-011 -5.21293e-012
85
root  0.357252 38.353 27.8479 174.691 8.49283 176.091
RightUpLeg  -7.04178 -9.35443 -5.32798
RightLeg  54.767 7.06573 -15.1202
RightFoot  2.34347 -0.752719 5.32293
RightToes  -5.82073e-011 -3.18055e-015 -2.98177e-016
Spine  7.05291 3.12863 6.38505
Spine1  9.65091 7.08374 -12.7001
HEad  -4.11333 -1.71583 1.46814
LeftShoulder1  -3.88251e-019 9.70628e-020 -3.87848e-018
LeftArm  -24.0628 62.617 -65.9325
LeftForeArm  -1.99627 -11.6071 -2.55628
LeftHand  -0.417658 -0.830641 8.44412
RightShoulder  7.54703 10.5337 35.6203
RightArm  20.8196 -39.4707 24.9408
RightForeArm  -5.2027 36.4731 -19.9853
RightHand  -1.39858 4.11571 -16.8699
LeftUpLeg  -17.6191 1.81039 -11.6619
LeftLeg  21.9932 7.67623 10.3753
LeftFoot  -2.1302 -0.522878 5.38488
LeftToes  -3.44176e-011 4.05998e-011 -5.21293e-012
86
root  0.282134 38.348 27.0853 174.967 9.47003 175.221
RightUpLeg  -12.9219 -9.75034 -5.52133
RightLeg  59.8438 6.54183 -19.6814
RightFoot  4.57287 -0.183538 0.900501
RightToes  -5.82073e-011 -3.18055e-015 -2.98177e-016
Spine  7.96809 3.0089 4.75264
Spine1  10.1958 6.93436 -12.9238
HEad  -4.45578 -0.602068 0.599047
LeftShoulder1  -3.88251e-019 9.70628e-020 -3.87848e-018
LeftArm  -22.1235 59.8857 -65.2574
LeftForeArm  -3.72488 -15.1737 -2.50113
LeftHand  -0.562805 -2.10869 9.35852
RightShoulder  7.60362 10.5905 35.7791
RightArm  20.9649 -39.7425 25.6342
RightForeArm  -2.06025 33.6166 -18.2543
RightHand  -1.39016 4.27853 -16.4969
LeftUpLeg  -17.1912 2.49776 -12.7334
LeftLeg  22.7862 7.82002 10.7932
LeftFoot  -3.80513 -0.415157 4.96073
LeftToes  -3.44176e-011 4.05998e-011 -5.21293e-012
87
root  0.24414 38.3822 26.3384 175.435 9.43109 175.354
RightUpLeg  -17.6722 -10.868 -4.33131
RightLeg  62.122 6.35608 -22.3288
RightFoot  2.52528 0.111731 -0.907283
RightToes  -5.82073e-011 -3.18055e-015 -2.98177e-016
Spine  8.98075 2.30713 4.05196
Spine1  10.534 6.13245 -12.6612
HEad  -5.10755 0.516538 -0.185838
LeftShoulder1  -3.88251e-019 9.70628e-020 -3.87848e-018
LeftArm  -19.4968 56.6416 -64.6396
LeftForeArm  -5.62325 -18.3596 -1.94928
LeftHand  -0.729156 -3.22813 10.4963
RightShoulder  7.60519 10.61 35.7435
RightArm  20.2334 -40.0848 26.7265
RightForeArm  1.25206 29.9709 -16.2096
RightHand  -1.41803 4.25255 -16.8672
LeftUpLeg  -16.8381 2.1181 -12.7855
LeftLeg  23.7863 7.89816 11.2805
LeftFoot  -5.90288 -0.252372 3.7604
LeftToes  -3.44176e-011 4.05998e-011 -5.21293e-012
88
root  0.227763 38.445 25.6118 176.16 8.78474 176.459
RightUpLeg  -21.5772 -11.8598 -1.94819
RightLeg  61.7715 6.54084 -21.5963
RightFoot  0.835874 0.01316 -0.203137
RightToes  -5.82073e-011 -3.18055e-015 -2.98177e-016
Spine  10.2572 1.39873 4.42522
Spine1  10.3666 5.06124 -11.8636
HEad  -5.79749 1.38413 -0.921065
LeftShoulder1  -3.88251e-019 9.70628e-020 -3.87848e-018
LeftArm  -16.3253 53.0007 -64.4283
LeftForeArm  -8.20144 -20.8033 -0.828574
LeftHand  -0.806583 -3.47953 11.2528
RightShoulder  7.53152 10.5884 35.4207
RightArm  19.2381 -40.9631 27.2243
RightForeArm  3.23722 26.6117 -14.4356
RightHand  -1.40062 3.98828 -17.1141
LeftUpLeg  -16.5576 1.78934 -11.8702
LeftLeg  24.6764 7.39232 11.4507
LeftFoot  -7.85845 -0.148275 2.79689
LeftToes  -3.44176e-011 4.05998e-011 -5.21293e-012
